<?xml version="1.0" encoding="UTF-8" standalone="no"?>
<!DOCTYPE svg PUBLIC "-//W3C//DTD SVG 1.1//EN"
 "http://www.w3.org/Graphics/SVG/1.1/DTD/svg11.dtd">
<!-- Generated by graphviz version 2.26.3 (20100126.1600)
 -->
<!-- Title: Finite_Automata_Graph Pages: 1 -->
<svg width="140pt" height="228pt"
 viewBox="0.00 0.00 140.00 228.00" xmlns="http://www.w3.org/2000/svg" xmlns:xlink="http://www.w3.org/1999/xlink">
<g id="graph1" class="graph" transform="scale(1 1) rotate(0) translate(4 224)">
<title>Finite_Automata_Graph</title>
<polygon fill="white" stroke="white" points="-4,5 -4,-224 137,-224 137,5 -4,5"/>
<!-- 0 -->
<g id="node1" class="node"><title>0</title>
<ellipse fill="none" stroke="#000000" cx="51" cy="-202" rx="18" ry="18"/>
<text text-anchor="middle" x="51" y="-197.4" font-family="Times Roman,serif" font-size="14.00">0</text>
</g>
<!-- 1 -->
<g id="node2" class="node"><title>1</title>
<ellipse fill="none" stroke="#000000" cx="18" cy="-114" rx="18" ry="18"/>
<text text-anchor="middle" x="18" y="-109.4" font-family="Times Roman,serif" font-size="14.00">1</text>
</g>
<!-- 0&#45;&gt;1 -->
<g id="edge2" class="edge"><title>0&#45;&gt;1</title>
<path fill="none" stroke="black" d="M38.337,-188.695C33.0116,-182.317 27.2968,-174.274 24,-166 21.086,-158.687 19.457,-150.369 18.5771,-142.564"/>
<polygon fill="black" stroke="black" points="22.0504,-142.081 17.7912,-132.38 15.0712,-142.62 22.0504,-142.081"/>
<text text-anchor="middle" x="43.5" y="-153.4" font-family="Times Roman,serif" font-size="14.00">/[+&#45;]/</text>
</g>
<!-- 2 -->
<g id="node3" class="node"><title>2</title>
<ellipse fill="none" stroke="#000000" cx="47" cy="-22" rx="18" ry="18"/>
<ellipse fill="none" stroke="#000000" cx="47" cy="-22" rx="22" ry="22"/>
<text text-anchor="middle" x="47" y="-17.4" font-family="Times Roman,serif" font-size="14.00">2</text>
</g>
<!-- 0&#45;&gt;2 -->
<g id="edge4" class="edge"><title>0&#45;&gt;2</title>
<path fill="none" stroke="black" d="M57.8889,-185.071C59.9649,-179.142 61.9658,-172.373 63,-166 70.404,-120.375 71.741,-107.388 63,-62 62.329,-58.516 61.3573,-54.9497 60.2194,-51.4512"/>
<polygon fill="black" stroke="black" points="63.4366,-50.06 56.6839,-41.8959 56.8716,-52.4891 63.4366,-50.06"/>
<text text-anchor="middle" x="91.5" y="-109.4" font-family="Times Roman,serif" font-size="14.00">/[0&#45;9]/</text>
</g>
<!-- 1&#45;&gt;2 -->
<g id="edge6" class="edge"><title>1&#45;&gt;2</title>
<path fill="none" stroke="black" d="M15.2849,-95.7613C14.4356,-85.586 14.4904,-72.82 18,-62 19.7533,-56.5946 22.5413,-51.3081 25.7111,-46.4409"/>
<polygon fill="black" stroke="black" points="28.6514,-48.3481 31.6879,-38.1977 22.9843,-44.2391 28.6514,-48.3481"/>
<text text-anchor="middle" x="40.5" y="-65.4" font-family="Times Roman,serif" font-size="14.00">/[0&#45;9]/</text>
</g>
<!-- 2&#45;&gt;2 -->
<g id="edge8" class="edge"><title>2&#45;&gt;2</title>
<path fill="none" stroke="black" d="M67.5808,-30.7341C77.8447,-31.9426 87,-29.0312 87,-22 87,-17.4956 83.2427,-14.682 77.8436,-13.5592"/>
<polygon fill="black" stroke="black" points="77.6768,-10.0531 67.5808,-13.2659 77.4767,-17.0502 77.6768,-10.0531"/>
<text text-anchor="middle" x="109.5" y="-17.4" font-family="Times Roman,serif" font-size="14.00">/[0&#45;9]/</text>
</g>
</g>
</svg>
